<svg xmlns="http://www.w3.org/2000/svg" viewBox="0 0 395.91 104.28"><defs><style>.cls-1,.cls-12,.cls-2{fill:#fff;}.cls-12,.cls-13,.cls-2{stroke:#231f20;}.cls-11,.cls-12,.cls-13,.cls-2{stroke-miterlimit:10;}.cls-2{stroke-width:3px;}.cls-13,.cls-3,.cls-4,.cls-7{fill:#231f20;}.cls-4{font-size:22px;letter-spacing:0.26em;}.cls-4,.cls-7{font-family:NotoSans-Regular, Noto Sans;}.cls-5{letter-spacing:0.24em;}.cls-6{letter-spacing:0.24em;}.cls-7{font-size:24px;}.cls-8{letter-spacing:0.09em;}.cls-9{letter-spacing:0.09em;}.cls-10{letter-spacing:-0.02em;}.cls-11{fill:none;stroke:#010101;}</style></defs><g id="Layer_2" data-name="Layer 2"><g id="Layer_1-2" data-name="Layer 1"><rect class="cls-1" width="395.91" height="104.28"/><rect class="cls-2" x="297.87" y="7.25" width="90" height="90"/><path class="cls-3" d="M309,44.68V21h3.59V44.68Z"/><path class="cls-3" d="M330.85,44.68V29.28c0-1.87-.41-3.16-1.24-3.88a5,5,0,0,0-3.43-1.08h-9.57V21h9.81c2.71,0,4.73.6,6,1.8s2,3.12,2,5.76V44.68Z"/><path class="cls-3" d="M338.82,44.68V41.36h12.72V29.28c0-1.87-.41-3.16-1.23-3.88a5.06,5.06,0,0,0-3.43-1.08h-8.06V21h8.3q4.06,0,6,1.8c1.32,1.2,2,3.12,2,5.76v12.8h3.11v3.32Z"/><path class="cls-3" d="M371.88,44.68V24.32H359.64V21H379.1v3.32h-3.63V44.68Z"/><path class="cls-3" d="M306,84.68V81.36h1.83c1.46,0,2.19-1.23,2.19-3.68V64.32h-3.86V61H320c2.71,0,4.73.6,6,1.8s2,3.12,2,5.76V84.68h-3.59V69.28c0-1.87-.41-3.16-1.24-3.88a5,5,0,0,0-3.43-1.08h-6.14V77.48a8.73,8.73,0,0,1-1.39,5.4q-1.39,1.8-4.59,1.8Z"/><path class="cls-3" d="M345.19,60.52a8.5,8.5,0,0,1,6.36,2.26,8,8,0,0,1,2.21,5.86v16H343.39V81.36h6.78V69.2a6.06,6.06,0,0,0-1.26-4,4.85,4.85,0,0,0-4-1.52,5.54,5.54,0,0,0-4.75,2.14,11.64,11.64,0,0,0-2,5.78l-1.4,13.08h-3.59l1.8-16.4L333.42,61H337l.68,3.36h.12a10.56,10.56,0,0,1,1.63-1.88,7.36,7.36,0,0,1,2.34-1.42A9.34,9.34,0,0,1,345.19,60.52Z"/><path class="cls-3" d="M359.18,84.68V78.36a13.44,13.44,0,0,1,1.28-6.24A8.33,8.33,0,0,1,364,68.48L358.94,61h4.23l8.89,13.24Q375,72.48,375,67.08V61h3.59v5.84a13.31,13.31,0,0,1-1.27,6.22,8.77,8.77,0,0,1-3.55,3.66l5.38,8h-4.23L365.68,71q-2.91,1.8-2.91,7.16v6.56Z"/><text class="cls-4" transform="translate(47.37 86.35)">M<tspan class="cls-5" x="25.67" y="0">ó</tspan><tspan x="44.26" y="0">wcie P</tspan><tspan class="cls-6" x="143.55" y="0">r</tspan><tspan x="157.92" y="0">awdę</tspan></text><text class="cls-7" transform="translate(7.16 26.53)"><tspan class="cls-8">Centrum Edukacyjno<tspan class="cls-9" x="273.02" y="0"> </tspan></tspan><tspan x="-0.89" y="29">Kultu</tspan><tspan class="cls-10" x="58.49" y="29">r</tspan><tspan x="67.92" y="29">alne - Dabru Emet</tspan></text><path class="cls-11" d="M23,91.65H37.65V69.36a7.56,7.56,0,0,0-7.33-7.82A7.55,7.55,0,0,0,23,69.36h0a7.56,7.56,0,0,0-7.34-7.82c-4.05,0-7.33,3.54-7.33,7.91v22.2H23"/><rect class="cls-12" x="27.25" y="69.42" width="7.3" height="7.79"/><rect class="cls-13" x="27.25" y="80.24" width="7.3" height="7.79"/><rect class="cls-12" x="12.25" y="69.42" width="7.3" height="7.79"/><rect class="cls-13" x="12.25" y="80.24" width="7.3" height="7.79"/><rect class="cls-3" x="21.57" y="72.16" width="3.11" height="0.72"/><rect class="cls-3" x="21.57" y="73.75" width="3.11" height="0.72"/><rect class="cls-3" x="21.84" y="82.99" width="3.11" height="0.72"/><rect class="cls-3" x="21.84" y="84.57" width="3.11" height="0.72"/></g></g></svg>