<svg xmlns="http://www.w3.org/2000/svg" viewBox="0 0 367.43 109.17"><defs><style>.cls-1,.cls-10{fill:#fff;}.cls-11,.cls-2,.cls-4,.cls-6{fill:#231f20;}.cls-3,.cls-9{fill:none;}.cls-10,.cls-11,.cls-3{stroke:#231f20;}.cls-10,.cls-11,.cls-3,.cls-9{stroke-miterlimit:10;}.cls-3{stroke-width:3px;}.cls-4{font-size:19px;letter-spacing:0.1em;}.cls-4,.cls-6{font-family:NotoSans-Regular, Noto Sans;}.cls-5{letter-spacing:0.08em;}.cls-6{font-size:21px;}.cls-7{letter-spacing:0.09em;}.cls-8{letter-spacing:-0.02em;}.cls-9{stroke:#010101;}</style></defs><g id="Layer_2" data-name="Layer 2"><g id="Layer_1-2" data-name="Layer 1"><rect class="cls-1" width="367.43" height="109.17"/><path class="cls-2" d="M278.21,47.42V23.74h3.59V47.42Z"/><path class="cls-2" d="M300,47.42V32c0-1.87-.41-3.16-1.23-3.88a5.06,5.06,0,0,0-3.43-1.08h-9.57V23.74h9.81q4.06,0,6,1.8c1.32,1.2,2,3.12,2,5.76V47.42Z"/><path class="cls-2" d="M308,47.42V44.1h12.72V32c0-1.87-.41-3.16-1.24-3.88a5,5,0,0,0-3.42-1.08H308V23.74h8.29c2.72,0,4.73.6,6,1.8s2,3.12,2,5.76V44.1h3.11v3.32Z"/><path class="cls-2" d="M341.06,47.42V27.06H328.82V23.74h19.45v3.32h-3.62V47.42Z"/><path class="cls-2" d="M275.2,87.42V84.1H277c1.46,0,2.19-1.23,2.19-3.68V67.06h-3.87V63.74H289.2q4.07,0,6,1.8c1.32,1.2,2,3.12,2,5.76V87.42h-3.58V72c0-1.87-.42-3.16-1.24-3.88A5,5,0,0,0,289,67.06h-6.14V80.22a8.73,8.73,0,0,1-1.4,5.4q-1.4,1.8-4.58,1.8Z"/><path class="cls-2" d="M314.36,63.26a8.47,8.47,0,0,1,6.36,2.26,8,8,0,0,1,2.22,5.86v16H312.57V84.1h6.78V71.94a6.06,6.06,0,0,0-1.26-4,4.87,4.87,0,0,0-4-1.52,5.52,5.52,0,0,0-4.74,2.14,11.64,11.64,0,0,0-2,5.78L306,87.42H302.4L304.19,71l-1.59-7.28h3.59l.67,3.36H307a11.05,11.05,0,0,1,1.64-1.88A7.31,7.31,0,0,1,311,63.8,9.42,9.42,0,0,1,314.36,63.26Z"/><path class="cls-2" d="M328.36,87.42V81.1a13.45,13.45,0,0,1,1.27-6.24,8.39,8.39,0,0,1,3.55-3.64l-5.06-7.48h4.23L341.24,77q2.91-1.76,2.91-7.16V63.74h3.59v5.84a13.3,13.3,0,0,1-1.28,6.22,8.65,8.65,0,0,1-3.55,3.66l5.39,8h-4.23L334.86,73.7Q332,75.5,332,80.86v6.56Z"/><rect class="cls-3" x="267.05" y="9.99" width="90" height="90"/><text class="cls-4" transform="translate(84.48 88.95)">M<tspan class="cls-5" x="19.13" y="0">ó</tspan><tspan x="32.15" y="0">wcie P</tspan><tspan class="cls-5" x="99.66" y="0">r</tspan><tspan x="109.02" y="0">awdę</tspan></text><text class="cls-6" transform="translate(9.48 30.13)"><tspan class="cls-7">Centrum Edukacyjno </tspan><tspan x="-0.06" y="27">Kultu</tspan><tspan class="cls-8" x="51.89" y="27">r</tspan><tspan x="60.14" y="27">alne - Dabru Emet</tspan></text><path class="cls-9" d="M26.17,100.38H40.83V78.1a7.56,7.56,0,0,0-7.33-7.82,7.55,7.55,0,0,0-7.32,7.82h0a7.57,7.57,0,0,0-7.34-7.82c-4.05,0-7.33,3.54-7.33,7.91v22.19H26.17"/><rect class="cls-10" x="30.43" y="78.16" width="7.3" height="7.79"/><rect class="cls-11" x="30.43" y="88.98" width="7.3" height="7.79"/><rect class="cls-10" x="15.43" y="78.16" width="7.3" height="7.79"/><rect class="cls-11" x="15.43" y="88.98" width="7.3" height="7.79"/><rect class="cls-2" x="24.75" y="80.9" width="3.11" height="0.72"/><rect class="cls-2" x="24.75" y="82.49" width="3.11" height="0.72"/><rect class="cls-2" x="25.02" y="91.72" width="3.11" height="0.72"/><rect class="cls-2" x="25.02" y="93.31" width="3.11" height="0.72"/></g></g></svg>