<svg xmlns="http://www.w3.org/2000/svg" viewBox="0 0 128.37 128.37"><defs><style>.cls-1{fill:#fff;stroke:#231f20;stroke-miterlimit:10;stroke-width:3px;}.cls-2{fill:#231f20;}</style></defs><g id="Layer_2" data-name="Layer 2"><g id="Layer_1-2" data-name="Layer 1"><rect class="cls-1" x="1.5" y="1.5" width="125.37" height="125.37"/><path class="cls-2" d="M17.05,53.64v-33h5v33Z"/><path class="cls-2" d="M47.44,53.64C46,27.07,54.72,24.19,27.61,25.28V20.65c33.17-1.87,23.22,6.54,24.83,33Z"/><path class="cls-2" d="M58.55,53.64V49H76.27c-1.29-20.47,6.36-25-17.72-23.74V20.65C86.47,18.78,80.7,26.52,81.27,49H85.6v4.62Z"/><path class="cls-2" d="M104.6,53.64V25.28h-17V20.65h27.1v4.63H109.6V53.64Z"/><path class="cls-2" d="M12.86,109.36v-4.62c3.41.25,5.71,0,5.61-5.13V81H13.08V76.37c35.74-1.17,30.18.33,30.44,33h-5c-.65-3.93,1.67-24.25-1.72-26.86-2.29-2.44-10.22-1.23-13.33-1.5V99.33C23.77,106.69,19.86,110.09,12.86,109.36Z"/><path class="cls-2" d="M67.41,75.71c17.3-1.09,10.77,23.63,11.94,33.65H64.91v-4.62h9.44c-.54-4.13,1.48-19.39-1.75-22.51-2.54-3.23-9.95-2.65-12.13.86-3.76,4.22-3.69,20.76-4.73,26.27h-5l2.5-22.84L51,76.37h5L57,81.06h.16A11.42,11.42,0,0,1,67.41,75.71Z"/><path class="cls-2" d="M86.91,109.36c0-7.67-1.22-18.74,6.72-22.56L86.57,76.37h5.89l12.39,18.45c5.06-2.26,4-13.15,4.06-18.45h5c.07,7.59,1,18.1-6.72,21.9l7.5,11.09H108.8L96,90.25c-5.2,2.41-3.94,13.73-4,19.11Z"/></g></g></svg>