<svg xmlns="http://www.w3.org/2000/svg" viewBox="0 0 432.43 104.28"><defs><style>.cls-1,.cls-13,.cls-2{fill:#fff;}.cls-13,.cls-14,.cls-2{stroke:#231f20;}.cls-12,.cls-13,.cls-14,.cls-2{stroke-miterlimit:10;}.cls-2{stroke-width:3px;}.cls-14,.cls-3,.cls-4,.cls-9{fill:#231f20;}.cls-4{font-size:24px;letter-spacing:0.26em;}.cls-4,.cls-9{font-family:NotoSans-Regular, Noto Sans;}.cls-5{letter-spacing:0.24em;}.cls-6{letter-spacing:0.26em;}.cls-7{letter-spacing:0.24em;}.cls-8{letter-spacing:0.26em;}.cls-9{font-size:27px;}.cls-10{letter-spacing:0.09em;}.cls-11{letter-spacing:-0.02em;}.cls-12{fill:none;stroke:#010101;}</style></defs><g id="Layer_2" data-name="Layer 2"><g id="Layer_1-2" data-name="Layer 1"><rect class="cls-1" x="2.87" width="429.56" height="104.28"/><rect class="cls-2" x="334.39" y="7.25" width="90" height="90"/><path class="cls-3" d="M345.56,44.68V21h3.59V44.68Z"/><path class="cls-3" d="M367.37,44.68V29.28c0-1.87-.41-3.16-1.24-3.88a5,5,0,0,0-3.42-1.08h-9.58V21h9.81c2.72,0,4.73.6,6.05,1.8s2,3.12,2,5.76V44.68Z"/><path class="cls-3" d="M375.35,44.68V41.36h12.72V29.28c0-1.87-.42-3.16-1.24-3.88a5,5,0,0,0-3.43-1.08h-8V21h8.29c2.71,0,4.73.6,6,1.8s2,3.12,2,5.76v12.8h3.11v3.32Z"/><path class="cls-3" d="M408.4,44.68V24.32H396.16V21h19.46v3.32H412V44.68Z"/><path class="cls-3" d="M342.55,84.68V81.36h1.83c1.46,0,2.2-1.23,2.2-3.68V64.32h-3.87V61h13.83c2.72,0,4.73.6,6,1.8s2,3.12,2,5.76V84.68H361V69.28c0-1.87-.41-3.16-1.24-3.88a5,5,0,0,0-3.42-1.08h-6.15V77.48a8.73,8.73,0,0,1-1.39,5.4q-1.39,1.8-4.59,1.8Z"/><path class="cls-3" d="M381.71,60.52a8.5,8.5,0,0,1,6.36,2.26,8,8,0,0,1,2.21,5.86v16H379.91V81.36h6.78V69.2a6.12,6.12,0,0,0-1.25-4,4.87,4.87,0,0,0-4-1.52,5.55,5.55,0,0,0-4.75,2.14,11.64,11.64,0,0,0-2,5.78l-1.4,13.08h-3.59l1.8-16.4L369.94,61h3.59l.68,3.36h.12A11,11,0,0,1,376,62.48a7.36,7.36,0,0,1,2.34-1.42A9.34,9.34,0,0,1,381.71,60.52Z"/><path class="cls-3" d="M395.7,84.68V78.36A13.44,13.44,0,0,1,397,72.12a8.33,8.33,0,0,1,3.55-3.64L395.46,61h4.23l8.89,13.24c1.94-1.17,2.92-3.56,2.92-7.16V61h3.58v5.84a13.31,13.31,0,0,1-1.27,6.22,8.71,8.71,0,0,1-3.55,3.66l5.38,8h-4.22L402.2,71q-2.91,1.8-2.91,7.16v6.56Z"/><text class="cls-4" transform="translate(62.93 93.11)">M<tspan class="cls-5" x="28.01" y="0">ó</tspan><tspan class="cls-6" x="48.29" y="0">wcie P</tspan><tspan class="cls-7" x="156.6" y="0">r</tspan><tspan class="cls-8" x="172.27" y="0">awdę</tspan></text><text class="cls-9" transform="translate(8.9 29.67)"><tspan class="cls-10">Centrum Edukacyjno </tspan><tspan x="-0.08" y="33">Kultu</tspan><tspan class="cls-11" x="66.72" y="33">r</tspan><tspan x="77.33" y="33">alne - Dabru Emet</tspan></text><path class="cls-12" d="M23.33,97.65H35.18v-18a6.11,6.11,0,0,0-5.93-6.32,6.1,6.1,0,0,0-5.92,6.32h0a6.1,6.1,0,0,0-5.92-6.32,6.17,6.17,0,0,0-5.93,6.39V97.65H23.33"/><rect class="cls-13" x="26.77" y="79.68" width="5.9" height="6.3"/><rect class="cls-14" x="26.77" y="88.43" width="5.9" height="6.3"/><rect class="cls-13" x="14.65" y="79.68" width="5.9" height="6.3"/><rect class="cls-14" x="14.65" y="88.43" width="5.9" height="6.3"/><rect class="cls-3" x="22.18" y="81.9" width="2.51" height="0.58"/><rect class="cls-3" x="22.18" y="83.18" width="2.51" height="0.58"/><rect class="cls-3" x="22.4" y="90.65" width="2.51" height="0.58"/><rect class="cls-3" x="22.4" y="91.93" width="2.51" height="0.58"/></g></g></svg>