<svg xmlns="http://www.w3.org/2000/svg" viewBox="0 0 608.74 152.87"><defs><style>.cls-1,.cls-2,.cls-5{fill:#fff;}.cls-2,.cls-5,.cls-6{stroke:#231f20;}.cls-2,.cls-4,.cls-5,.cls-6{stroke-miterlimit:10;}.cls-2{stroke-width:3px;}.cls-3,.cls-6{fill:#231f20;}.cls-4{fill:none;stroke:#010101;}</style></defs><g id="Layer_2" data-name="Layer 2"><g id="Layer_1-2" data-name="Layer 1"><rect class="cls-1" width="608.74" height="152.87"/><rect class="cls-2" x="467.71" y="14.56" width="125.37" height="125.37"/><path class="cls-3" d="M483.27,66.7v-33h5v33Z"/><path class="cls-3" d="M513.65,66.7c-1.48-26.57,7.28-29.44-19.83-28.36V33.71c33.17-1.86,23.22,6.54,24.83,33Z"/><path class="cls-3" d="M524.76,66.7V62.08h17.72c-1.29-20.47,6.36-25-17.72-23.74V33.71c27.92-1.86,22.15,5.88,22.72,28.37h4.33V66.7Z"/><path class="cls-3" d="M570.81,66.7V38.34h-17V33.71h27.11v4.63h-5.06V66.7Z"/><path class="cls-3" d="M479.07,122.43V117.8c3.41.25,5.72,0,5.61-5.13V94.06h-5.39V89.44c35.75-1.18,30.19.32,30.45,33h-5c-.66-3.94,1.66-24.26-1.73-26.86-2.29-2.45-10.22-1.23-13.33-1.51V112.4C490,119.75,486.08,123.16,479.07,122.43Z"/><path class="cls-3" d="M533.62,88.77c17.3-1.09,10.77,23.63,12,33.66H531.12V117.8h9.45c-.55-4.13,1.47-19.39-1.75-22.51-2.55-3.23-10-2.65-12.14.86-3.76,4.22-3.69,20.76-4.72,26.28h-5l2.5-22.85-2.23-10.14h5l.95,4.68h.16A11.43,11.43,0,0,1,533.62,88.77Z"/><path class="cls-3" d="M553.12,122.43c0-7.67-1.22-18.75,6.72-22.57l-7.05-10.42h5.88l12.39,18.44c5.06-2.26,4-13.15,4.06-18.44h5c.06,7.59,1,18.09-6.72,21.9l7.5,11.09H575l-12.84-19.12c-5.2,2.42-3.94,13.73-4,19.12Z"/><path class="cls-3" d="M26,21.59a6.77,6.77,0,0,0-5.43,2.31,9.41,9.41,0,0,0-2,6.33,9.9,9.9,0,0,0,1.84,6.32A6.64,6.64,0,0,0,26,38.87a14.09,14.09,0,0,0,2.64-.24q1.26-.24,2.49-.6v2.34a13.14,13.14,0,0,1-2.48.66,19,19,0,0,1-3,.21,10.21,10.21,0,0,1-5.46-1.35,8.32,8.32,0,0,1-3.29-3.84,14.44,14.44,0,0,1-1.09-5.85A13.06,13.06,0,0,1,17,24.49a8.93,8.93,0,0,1,3.5-3.87,10.66,10.66,0,0,1,5.61-1.4A13.06,13.06,0,0,1,32,20.48L30.9,22.76A17.1,17.1,0,0,0,28.69,22,9.28,9.28,0,0,0,26,21.59Z"/><path class="cls-3" d="M41.21,24.56a6.79,6.79,0,0,1,3.55.9A5.88,5.88,0,0,1,47.05,28a8.63,8.63,0,0,1,.79,3.82v1.59h-11a6,6,0,0,0,1.39,4.16A4.85,4.85,0,0,0,42,39a11.73,11.73,0,0,0,2.72-.28,15.3,15.3,0,0,0,2.44-.83v2.31a12.55,12.55,0,0,1-2.43.8,13.91,13.91,0,0,1-2.85.25,8.47,8.47,0,0,1-4.05-.93,6.5,6.5,0,0,1-2.71-2.76,9.55,9.55,0,0,1-1-4.53A10.61,10.61,0,0,1,35,28.49a6.73,6.73,0,0,1,2.49-2.91A6.8,6.8,0,0,1,41.21,24.56Zm0,2.16a3.82,3.82,0,0,0-3,1.22,5.71,5.71,0,0,0-1.31,3.37h8.2a5.7,5.7,0,0,0-1-3.31A3.38,3.38,0,0,0,41.18,26.72Z"/><path class="cls-3" d="M59.22,24.56A6.07,6.07,0,0,1,63.57,26,6,6,0,0,1,65,30.47V40.94h-2.6V30.65c0-2.58-1.21-3.87-3.6-3.87-1.79,0-3,.5-3.7,1.5a7.66,7.66,0,0,0-1,4.32v8.34H51.47V24.86H53.6l.4,2.19h.15a4.72,4.72,0,0,1,2.15-1.87A7.09,7.09,0,0,1,59.22,24.56Z"/><path class="cls-3" d="M74.93,39.08A8.73,8.73,0,0,0,76.17,39a4.55,4.55,0,0,0,1-.24v2a4.38,4.38,0,0,1-1.19.35,8.86,8.86,0,0,1-1.5.13,6.08,6.08,0,0,1-2.33-.43,3.62,3.62,0,0,1-1.73-1.52,5.92,5.92,0,0,1-.66-3V26.9H67.5V25.64l2.3-1.05,1-3.42h1.57v3.69h4.64v2H72.42v9.3a3,3,0,0,0,.7,2.18A2.44,2.44,0,0,0,74.93,39.08Z"/><path class="cls-3" d="M87.44,24.56c.31,0,.62,0,1,.05a8.21,8.21,0,0,1,.94.13L89,27.17c-.27-.06-.56-.11-.88-.15a7.07,7.07,0,0,0-.87-.06,4.31,4.31,0,0,0-2.31.68,4.85,4.85,0,0,0-1.72,1.89,5.94,5.94,0,0,0-.64,2.83v8.58H79.94V24.86H82.1l.3,2.94h.12a7.62,7.62,0,0,1,2-2.28A4.64,4.64,0,0,1,87.44,24.56Z"/><path class="cls-3" d="M105.32,24.86V40.94h-2.16l-.39-2.13h-.12a4.59,4.59,0,0,1-2.16,1.85,7.45,7.45,0,0,1-2.94.58,6.14,6.14,0,0,1-4.38-1.39,5.92,5.92,0,0,1-1.47-4.46V24.86h2.67V35.21q0,3.84,3.57,3.84c1.78,0,3-.5,3.71-1.5a7.58,7.58,0,0,0,1-4.32V24.86Z"/><path class="cls-3" d="M127.61,24.56A5.4,5.4,0,0,1,131.69,26a6.34,6.34,0,0,1,1.35,4.5V40.94h-2.61V30.59q0-3.81-3.27-3.81a3.89,3.89,0,0,0-3.34,1.35,6.51,6.51,0,0,0-1,3.93v8.88H120.2V30.59q0-3.81-3.3-3.81a3.63,3.63,0,0,0-3.36,1.5,8.25,8.25,0,0,0-.93,4.32v8.34H110V24.86h2.13l.39,2.19h.15a4.69,4.69,0,0,1,2-1.87,6.15,6.15,0,0,1,2.71-.62q3.78,0,4.92,2.7h.15a5,5,0,0,1,2.19-2A6.79,6.79,0,0,1,127.61,24.56Z"/><path class="cls-3" d="M157.26,40.94h-12V19.52h12v2.37H148v6.69h8.72v2.34H148v7.65h9.27Z"/><path class="cls-3" d="M166.85,41.24a6,6,0,0,1-4.8-2.08c-1.2-1.39-1.79-3.47-1.79-6.23s.6-4.84,1.81-6.25a6.71,6.71,0,0,1,7.86-1.43,6.46,6.46,0,0,1,1.93,1.68H172c0-.26-.08-.64-.11-1.15s-.07-.92-.07-1.22V18.14h2.65v22.8h-2.14L172,38.78h-.12a6.23,6.23,0,0,1-1.92,1.74A5.94,5.94,0,0,1,166.85,41.24Zm.42-2.19a4.19,4.19,0,0,0,3.59-1.39,7.08,7.08,0,0,0,1-4.22V33a8.81,8.81,0,0,0-1-4.6c-.66-1.07-1.88-1.61-3.66-1.61a3.52,3.52,0,0,0-3.19,1.7A8.45,8.45,0,0,0,163,33a8,8,0,0,0,1.07,4.47A3.62,3.62,0,0,0,167.27,39.05Z"/><path class="cls-3" d="M192.59,24.86V40.94h-2.16L190,38.81h-.12a4.59,4.59,0,0,1-2.16,1.85,7.45,7.45,0,0,1-2.94.58,6.14,6.14,0,0,1-4.38-1.39A5.92,5.92,0,0,1,179,35.39V24.86h2.67V35.21q0,3.84,3.57,3.84c1.78,0,3-.5,3.71-1.5a7.58,7.58,0,0,0,1-4.32V24.86Z"/><path class="cls-3" d="M199.85,18.14V30.05c0,.32,0,.74,0,1.26s-.06,1-.08,1.35h.12l.54-.69.74-.91c.25-.31.46-.57.64-.77l5.13-5.43H210l-6.51,6.87,7,9.21h-3.18l-5.58-7.5L199.85,35v5.91h-2.61V18.14Z"/><path class="cls-3" d="M218.9,24.59a6.28,6.28,0,0,1,4.35,1.29A5.33,5.33,0,0,1,224.66,30v11h-1.92l-.51-2.28h-.12a7.35,7.35,0,0,1-2.22,2,6.75,6.75,0,0,1-3.18.63,5.61,5.61,0,0,1-3.63-1.15,4.37,4.37,0,0,1-1.44-3.62,4.23,4.23,0,0,1,1.89-3.7,11,11,0,0,1,5.82-1.43l2.73-.09v-1a3.64,3.64,0,0,0-.87-2.79,3.56,3.56,0,0,0-2.46-.78,7.63,7.63,0,0,0-2.4.38,17.19,17.19,0,0,0-2.13.85l-.81-2a12.09,12.09,0,0,1,2.49-1A11,11,0,0,1,218.9,24.59Zm3.15,8.49-2.37.09a8,8,0,0,0-4.15,1,2.76,2.76,0,0,0-1.16,2.37,2.33,2.33,0,0,0,.83,2,3.37,3.37,0,0,0,2.11.63A5.14,5.14,0,0,0,220.69,38a4.24,4.24,0,0,0,1.36-3.47Z"/><path class="cls-3" d="M235.64,41.24a8,8,0,0,1-3.81-.87,6.11,6.11,0,0,1-2.59-2.7,10.17,10.17,0,0,1-1-4.68,10.39,10.39,0,0,1,1-4.83A6.16,6.16,0,0,1,232,25.43a8.41,8.41,0,0,1,3.87-.87,10.94,10.94,0,0,1,2.36.26,8.19,8.19,0,0,1,1.87.61l-.81,2.19a15.61,15.61,0,0,0-1.68-.51,7.44,7.44,0,0,0-1.8-.24Q231,26.87,231,33a7.36,7.36,0,0,0,1.16,4.46A4,4,0,0,0,235.61,39a9,9,0,0,0,2.31-.27,11.25,11.25,0,0,0,1.86-.66v2.34A7.51,7.51,0,0,1,238,41,10.7,10.7,0,0,1,235.64,41.24Z"/><path class="cls-3" d="M240.62,24.86h2.82L246.92,34q.45,1.23.81,2.31a15.11,15.11,0,0,1,.54,2.07h.12c.12-.5.31-1.15.57-2s.53-1.63.81-2.45L253,24.86h2.85L249,43.16a10.44,10.44,0,0,1-2.19,3.63,4.88,4.88,0,0,1-3.66,1.35,9.35,9.35,0,0,1-1.26-.07c-.36,0-.67-.11-.93-.17V45.8l.8.12a7.54,7.54,0,0,0,1,.06,3.13,3.13,0,0,0,2.22-.78,5.56,5.56,0,0,0,1.35-2.07L247.1,41Z"/><path class="cls-3" d="M256.1,48.14a7.59,7.59,0,0,1-1.35-.1,5.44,5.44,0,0,1-1-.26V45.65a5.75,5.75,0,0,0,.93.23,6.85,6.85,0,0,0,1.05.07,2.4,2.4,0,0,0,1.59-.52,2.53,2.53,0,0,0,.63-2V24.86h2.64V43.34a5.3,5.3,0,0,1-1.08,3.53A4.28,4.28,0,0,1,256.1,48.14Zm1.68-27.63a1.62,1.62,0,0,1,.45-1.27,1.56,1.56,0,0,1,2.64,1.27,1.61,1.61,0,0,1-.46,1.28,1.68,1.68,0,0,1-2.18,0A1.65,1.65,0,0,1,257.78,20.51Z"/><path class="cls-3" d="M273,24.56A6.06,6.06,0,0,1,277.37,26a6,6,0,0,1,1.47,4.5V40.94h-2.61V30.65q0-3.87-3.6-3.87-2.67,0-3.69,1.5a7.66,7.66,0,0,0-1,4.32v8.34h-2.64V24.86h2.13l.39,2.19H268a4.75,4.75,0,0,1,2.16-1.87A7.07,7.07,0,0,1,273,24.56Z"/><path class="cls-3" d="M297.35,32.87a8.76,8.76,0,0,1-2,6.18,7.1,7.1,0,0,1-5.48,2.19,7.35,7.35,0,0,1-3.79-1,6.8,6.8,0,0,1-2.63-2.85,9.9,9.9,0,0,1-1-4.55,8.74,8.74,0,0,1,2-6.15,7.07,7.07,0,0,1,5.47-2.16,7.51,7.51,0,0,1,3.84,1,6.71,6.71,0,0,1,2.63,2.82A9.8,9.8,0,0,1,297.35,32.87Zm-12.15,0a8,8,0,0,0,1.13,4.52,4.68,4.68,0,0,0,7.15,0,7.9,7.9,0,0,0,1.14-4.52,7.66,7.66,0,0,0-1.14-4.47,4.1,4.1,0,0,0-3.6-1.62,4,4,0,0,0-3.57,1.62A7.82,7.82,0,0,0,285.2,32.87Z"/><path class="cls-3" d="M324.44,40.94h-3.18l-7.59-10.23-2.19,1.92v8.31h-2.7V19.52h2.7V30.08q.9-1,1.83-2l1.86-2L321,19.52h3.15l-8.49,9.33Z"/><path class="cls-3" d="M340,24.86V40.94h-2.16l-.39-2.13h-.12a4.59,4.59,0,0,1-2.16,1.85,7.45,7.45,0,0,1-2.94.58,6.14,6.14,0,0,1-4.38-1.39,5.92,5.92,0,0,1-1.47-4.46V24.86H329V35.21q0,3.84,3.57,3.84c1.78,0,3-.5,3.71-1.5a7.58,7.58,0,0,0,1-4.32V24.86Z"/><path class="cls-3" d="M347.27,40.94h-2.64V18.14h2.64Z"/><path class="cls-3" d="M357.29,39.08a8.69,8.69,0,0,0,1.23-.09,4.8,4.8,0,0,0,1-.24v2a4.47,4.47,0,0,1-1.2.35,8.78,8.78,0,0,1-1.5.13,6.15,6.15,0,0,1-2.33-.43,3.64,3.64,0,0,1-1.72-1.52,5.82,5.82,0,0,1-.66-3V26.9h-2.28V25.64l2.31-1.05,1-3.42h1.56v3.69h4.65v2h-4.65v9.3a3,3,0,0,0,.71,2.18A2.43,2.43,0,0,0,357.29,39.08Z"/><path class="cls-3" d="M375.74,24.86V40.94h-2.16l-.39-2.13h-.12a4.59,4.59,0,0,1-2.16,1.85,7.45,7.45,0,0,1-2.94.58,6.14,6.14,0,0,1-4.38-1.39,5.92,5.92,0,0,1-1.47-4.46V24.86h2.67V35.21q0,3.84,3.57,3.84c1.78,0,3-.5,3.71-1.5a7.58,7.58,0,0,0,1-4.32V24.86Z"/><path class="cls-3" d="M387.89,24.56c.3,0,.62,0,1,.05a7.72,7.72,0,0,1,.93.13l-.33,2.43a8.67,8.67,0,0,0-.87-.15,7.07,7.07,0,0,0-.87-.06,4.29,4.29,0,0,0-2.31.68,4.85,4.85,0,0,0-1.72,1.89,5.94,5.94,0,0,0-.65,2.83v8.58h-2.64V24.86h2.16l.3,2.94H383a7.62,7.62,0,0,1,2-2.28A4.64,4.64,0,0,1,387.89,24.56Z"/><path class="cls-3" d="M397.82,24.59a6.28,6.28,0,0,1,4.35,1.29A5.33,5.33,0,0,1,403.58,30v11h-1.92l-.51-2.28H401a7.35,7.35,0,0,1-2.22,2,6.75,6.75,0,0,1-3.18.63A5.61,5.61,0,0,1,392,40.09a4.37,4.37,0,0,1-1.44-3.62,4.23,4.23,0,0,1,1.89-3.7,11,11,0,0,1,5.82-1.43l2.73-.09v-1a3.64,3.64,0,0,0-.87-2.79,3.56,3.56,0,0,0-2.46-.78,7.63,7.63,0,0,0-2.4.38,17.19,17.19,0,0,0-2.13.85l-.81-2a12.09,12.09,0,0,1,2.49-1A11,11,0,0,1,397.82,24.59ZM401,33.08l-2.37.09a8,8,0,0,0-4.15,1,2.76,2.76,0,0,0-1.16,2.37,2.33,2.33,0,0,0,.83,2,3.37,3.37,0,0,0,2.11.63A5.14,5.14,0,0,0,399.61,38,4.24,4.24,0,0,0,401,34.52Z"/><path class="cls-3" d="M410.75,40.94h-2.64V18.14h2.64Z"/><path class="cls-3" d="M423.14,24.56A6.06,6.06,0,0,1,427.49,26a6,6,0,0,1,1.47,4.5V40.94h-2.61V30.65q0-3.87-3.6-3.87-2.67,0-3.69,1.5a7.66,7.66,0,0,0-1,4.32v8.34H415.4V24.86h2.13l.39,2.19h.15a4.75,4.75,0,0,1,2.16-1.87A7.07,7.07,0,0,1,423.14,24.56Z"/><path class="cls-3" d="M439.7,24.56a6.75,6.75,0,0,1,3.54.9,5.91,5.91,0,0,1,2.3,2.54,8.63,8.63,0,0,1,.79,3.82v1.59h-11a6.08,6.08,0,0,0,1.4,4.16A4.85,4.85,0,0,0,440.45,39a11.73,11.73,0,0,0,2.72-.28,15.3,15.3,0,0,0,2.44-.83v2.31a12.55,12.55,0,0,1-2.43.8,13.91,13.91,0,0,1-2.85.25,8.47,8.47,0,0,1-4.05-.93,6.5,6.5,0,0,1-2.71-2.76,9.55,9.55,0,0,1-1-4.53,10.61,10.61,0,0,1,.89-4.53A6.73,6.73,0,0,1,436,25.58,6.8,6.8,0,0,1,439.7,24.56Zm0,2.16a3.81,3.81,0,0,0-3,1.22,5.71,5.71,0,0,0-1.31,3.37h8.19a5.62,5.62,0,0,0-1-3.31A3.4,3.4,0,0,0,439.67,26.72Z"/><path class="cls-3" d="M33.86,67q0,5.43-2.95,8.18c-2,1.83-4.72,2.74-8.23,2.74h-6V56.52h6.6a12.32,12.32,0,0,1,5.6,1.2,8.42,8.42,0,0,1,3.67,3.54A11.79,11.79,0,0,1,33.86,67ZM31,67.11q0-4.29-2.11-6.28a8.37,8.37,0,0,0-6-2H19.4v16.8h2.91Q31,75.63,31,67.11Z"/><path class="cls-3" d="M45.11,61.59a6.28,6.28,0,0,1,4.35,1.29A5.33,5.33,0,0,1,50.87,67v11H49l-.51-2.28h-.12a7.35,7.35,0,0,1-2.22,2,6.73,6.73,0,0,1-3.17.63,5.62,5.62,0,0,1-3.64-1.15,4.37,4.37,0,0,1-1.44-3.62,4.23,4.23,0,0,1,1.89-3.7,11,11,0,0,1,5.82-1.43l2.73-.09v-1a3.68,3.68,0,0,0-.86-2.79A3.6,3.6,0,0,0,45,63.72a7.63,7.63,0,0,0-2.4.38,17.19,17.19,0,0,0-2.13.85l-.81-2a12.09,12.09,0,0,1,2.49-1A11,11,0,0,1,45.11,61.59Zm3.15,8.49-2.37.09a8,8,0,0,0-4.15,1,2.76,2.76,0,0,0-1.16,2.37,2.33,2.33,0,0,0,.83,2,3.37,3.37,0,0,0,2.11.63A5.14,5.14,0,0,0,46.9,75a4.24,4.24,0,0,0,1.36-3.47Z"/><path class="cls-3" d="M59.27,55.14v5.55c0,.68,0,1.32,0,1.91s-.07,1-.11,1.39h.15a5.6,5.6,0,0,1,1.89-1.71,6.15,6.15,0,0,1,3.09-.69,6.08,6.08,0,0,1,4.82,2.09q1.82,2.08,1.81,6.22t-1.83,6.24a6.06,6.06,0,0,1-4.8,2.1,6.15,6.15,0,0,1-3.09-.69,5.9,5.9,0,0,1-1.89-1.65h-.21l-.54,2H56.63V55.14Zm4.53,8.64c-1.72,0-2.9.49-3.55,1.47a8.39,8.39,0,0,0-1,4.56v.12a8.71,8.71,0,0,0,1,4.55c.65,1,1.85,1.57,3.61,1.57a3.63,3.63,0,0,0,3.23-1.59,8.24,8.24,0,0,0,1.06-4.59Q68.15,63.78,63.8,63.78Z"/><path class="cls-3" d="M83.36,61.56c.3,0,.62,0,1,0a7.72,7.72,0,0,1,.93.13l-.33,2.43a8.67,8.67,0,0,0-.87-.15,7.07,7.07,0,0,0-.87-.06,4.29,4.29,0,0,0-2.31.68,4.85,4.85,0,0,0-1.72,1.89,5.94,5.94,0,0,0-.65,2.83v8.58H75.86V61.86H78l.3,2.94h.12a7.62,7.62,0,0,1,2-2.28A4.64,4.64,0,0,1,83.36,61.56Z"/><path class="cls-3" d="M102.47,61.86V77.94h-2.16l-.39-2.13H99.8a4.59,4.59,0,0,1-2.16,1.85,7.45,7.45,0,0,1-2.94.58,6.14,6.14,0,0,1-4.38-1.39,5.92,5.92,0,0,1-1.47-4.46V61.86h2.67V72.21q0,3.84,3.57,3.84c1.78,0,3-.5,3.71-1.5a7.58,7.58,0,0,0,1-4.32V61.86Z"/><path class="cls-3" d="M129.26,77.94h-12V56.52h12v2.37H120v6.69h8.73v2.34H120v7.65h9.27Z"/><path class="cls-3" d="M152,61.56A5.4,5.4,0,0,1,156.11,63a6.34,6.34,0,0,1,1.35,4.5V77.94h-2.61V67.59q0-3.81-3.27-3.81a3.89,3.89,0,0,0-3.34,1.35,6.51,6.51,0,0,0-1,3.93v8.88h-2.61V67.59q0-3.81-3.3-3.81a3.63,3.63,0,0,0-3.36,1.5A8.25,8.25,0,0,0,137,69.6v8.34h-2.64V61.86h2.13l.39,2.19h.15a4.69,4.69,0,0,1,2-1.87,6.15,6.15,0,0,1,2.71-.62q3.78,0,4.92,2.7h.15a5,5,0,0,1,2.19-2A6.79,6.79,0,0,1,152,61.56Z"/><path class="cls-3" d="M169.43,61.56a6.75,6.75,0,0,1,3.54.9,5.91,5.91,0,0,1,2.3,2.54,8.63,8.63,0,0,1,.79,3.82v1.59h-11a6.08,6.08,0,0,0,1.4,4.16A4.85,4.85,0,0,0,170.18,76a11.73,11.73,0,0,0,2.72-.28,15.3,15.3,0,0,0,2.44-.83v2.31a12.55,12.55,0,0,1-2.43.8,13.91,13.91,0,0,1-2.85.25,8.47,8.47,0,0,1-4.05-.93,6.5,6.5,0,0,1-2.71-2.76,9.55,9.55,0,0,1-1-4.53,10.61,10.61,0,0,1,.89-4.53,6.73,6.73,0,0,1,2.49-2.91A6.8,6.8,0,0,1,169.43,61.56Zm0,2.16a3.81,3.81,0,0,0-3,1.22,5.71,5.71,0,0,0-1.31,3.37h8.19a5.62,5.62,0,0,0-1-3.31A3.4,3.4,0,0,0,169.4,63.72Z"/><path class="cls-3" d="M186.29,76.08a8.69,8.69,0,0,0,1.23-.09,4.8,4.8,0,0,0,1-.24v2a4.47,4.47,0,0,1-1.2.35,8.78,8.78,0,0,1-1.5.13,6.06,6.06,0,0,1-2.32-.43,3.62,3.62,0,0,1-1.73-1.52,5.82,5.82,0,0,1-.66-3V63.9h-2.28V62.64l2.31-1,1.05-3.42h1.56v3.69h4.65v2h-4.65v9.3a3,3,0,0,0,.71,2.18A2.44,2.44,0,0,0,186.29,76.08Z"/><path class="cls-3" d="M199.76,71.07V68.73H207v2.34Z"/><path class="cls-3" d="M229.94,77.94l-7.05-18.78h-.12c.06.62.11,1.46.15,2.51S223,63.81,223,65v13h-2.49V56.52h4l6.6,17.55h.12l6.72-17.55h4V77.94h-2.67V64.77c0-1,0-2.07.08-3.09s.09-1.85.13-2.49h-.12l-7.14,18.75Z"/><path class="cls-3" d="M262.1,69.87a8.76,8.76,0,0,1-2,6.18,7.1,7.1,0,0,1-5.48,2.19,7.35,7.35,0,0,1-3.79-1,6.8,6.8,0,0,1-2.63-2.85,9.9,9.9,0,0,1-1-4.55,8.74,8.74,0,0,1,2-6.15,7.07,7.07,0,0,1,5.47-2.16,7.51,7.51,0,0,1,3.84,1,6.71,6.71,0,0,1,2.63,2.82A9.8,9.8,0,0,1,262.1,69.87Zm-12.15,0a8,8,0,0,0,1.13,4.52,4.68,4.68,0,0,0,7.15,0,7.9,7.9,0,0,0,1.14-4.52,7.66,7.66,0,0,0-1.14-4.47,4.1,4.1,0,0,0-3.6-1.62,4,4,0,0,0-3.57,1.62A7.82,7.82,0,0,0,250,69.87ZM258.89,55v.3c-.26.36-.63.83-1.12,1.4s-1,1.14-1.59,1.71a15,15,0,0,1-1.58,1.39h-1.74V59.4c.28-.36.6-.8,1-1.33s.71-1.07,1.05-1.62.62-1.05.84-1.49Z"/><path class="cls-3" d="M279.59,77.91l-2.76-9.06q-.39-1.23-.69-2.4t-.42-1.86h-.12q-.12.69-.39,1.86t-.69,2.43l-2.88,9h-3l-4.41-16.08H267l2.22,8.58q.33,1.29.63,2.61t.42,2.19h.12q.09-.51.27-1.26c.12-.5.25-1,.39-1.57s.28-1,.42-1.49l2.85-9.06h2.88l2.76,9.06q.3,1,.63,2.25a17,17,0,0,1,.45,2h.12a19.85,19.85,0,0,1,.41-2.07c.21-.88.43-1.78.67-2.7l2.25-8.58h2.7l-4.47,16.08Z"/><path class="cls-3" d="M297.26,78.24a8,8,0,0,1-3.81-.87,6.11,6.11,0,0,1-2.59-2.7,10.17,10.17,0,0,1-.95-4.68,10.39,10.39,0,0,1,1-4.83,6.16,6.16,0,0,1,2.68-2.73,8.41,8.41,0,0,1,3.87-.87,10.94,10.94,0,0,1,2.36.26,8.19,8.19,0,0,1,1.87.61l-.81,2.19a15.61,15.61,0,0,0-1.68-.51,7.44,7.44,0,0,0-1.8-.24q-4.74,0-4.74,6.09a7.36,7.36,0,0,0,1.16,4.46A4,4,0,0,0,297.23,76a9,9,0,0,0,2.31-.27A11.25,11.25,0,0,0,301.4,75v2.34a7.51,7.51,0,0,1-1.78.65A10.7,10.7,0,0,1,297.26,78.24Z"/><path class="cls-3" d="M307.34,55.83a1.5,1.5,0,0,1,1.53,1.68,1.61,1.61,0,0,1-.46,1.28,1.68,1.68,0,0,1-2.18,0,1.65,1.65,0,0,1-.45-1.28,1.62,1.62,0,0,1,.45-1.27A1.6,1.6,0,0,1,307.34,55.83Zm1.29,6V77.94H306V61.86Z"/><path class="cls-3" d="M320.72,61.56a6.75,6.75,0,0,1,3.54.9,5.91,5.91,0,0,1,2.3,2.54,8.63,8.63,0,0,1,.79,3.82v1.59h-11a6.08,6.08,0,0,0,1.4,4.16A4.85,4.85,0,0,0,321.47,76a11.73,11.73,0,0,0,2.72-.28,15.3,15.3,0,0,0,2.44-.83v2.31a12.55,12.55,0,0,1-2.43.8,13.91,13.91,0,0,1-2.85.25,8.47,8.47,0,0,1-4.05-.93,6.5,6.5,0,0,1-2.71-2.76,9.55,9.55,0,0,1-1-4.53,10.61,10.61,0,0,1,.89-4.53A6.73,6.73,0,0,1,317,62.58,6.8,6.8,0,0,1,320.72,61.56Zm0,2.16a3.81,3.81,0,0,0-3,1.22,5.71,5.71,0,0,0-1.31,3.37h8.19a5.62,5.62,0,0,0-1-3.31A3.4,3.4,0,0,0,320.69,63.72Z"/><path class="cls-3" d="M346.82,56.52q4.2,0,6.12,1.65a5.8,5.8,0,0,1,1.92,4.65,7.16,7.16,0,0,1-.79,3.32,5.87,5.87,0,0,1-2.67,2.5,11.28,11.28,0,0,1-5.09,1h-2.46v8.34h-2.7V56.52Zm-.24,2.31h-2.73v8.46H346a8.39,8.39,0,0,0,4.56-1,3.72,3.72,0,0,0,1.5-3.36,3.64,3.64,0,0,0-1.33-3.09A6.86,6.86,0,0,0,346.58,58.83Z"/><path class="cls-3" d="M367.22,61.56c.3,0,.62,0,1,0a7.72,7.72,0,0,1,.93.13l-.33,2.43a8.67,8.67,0,0,0-.87-.15A7.07,7.07,0,0,0,367,64a4.29,4.29,0,0,0-2.31.68A4.85,4.85,0,0,0,363,66.53a5.94,5.94,0,0,0-.65,2.83v8.58h-2.64V61.86h2.16l.3,2.94h.12a7.62,7.62,0,0,1,2-2.28A4.64,4.64,0,0,1,367.22,61.56Z"/><path class="cls-3" d="M378.38,61.59a6.28,6.28,0,0,1,4.35,1.29A5.33,5.33,0,0,1,384.14,67v11h-1.92l-.51-2.28h-.12a7.35,7.35,0,0,1-2.22,2,6.75,6.75,0,0,1-3.18.63,5.61,5.61,0,0,1-3.63-1.15,4.37,4.37,0,0,1-1.44-3.62,4.23,4.23,0,0,1,1.89-3.7,11,11,0,0,1,5.82-1.43l2.73-.09v-1a3.64,3.64,0,0,0-.87-2.79,3.56,3.56,0,0,0-2.46-.78,7.63,7.63,0,0,0-2.4.38,17.19,17.19,0,0,0-2.13.85l-.81-2a12.09,12.09,0,0,1,2.49-1A11,11,0,0,1,378.38,61.59Zm3.15,8.49-2.37.09a8,8,0,0,0-4.15,1,2.76,2.76,0,0,0-1.16,2.37,2.33,2.33,0,0,0,.83,2,3.37,3.37,0,0,0,2.11.63A5.14,5.14,0,0,0,380.17,75a4.24,4.24,0,0,0,1.36-3.47Z"/><path class="cls-3" d="M403,77.91l-2.76-9.06q-.39-1.23-.69-2.4t-.42-1.86h-.12q-.12.69-.39,1.86T398,68.88l-2.88,9h-3l-4.41-16.08h2.73l2.22,8.58q.33,1.29.63,2.61t.42,2.19h.12q.09-.51.27-1.26c.12-.5.25-1,.39-1.57s.28-1,.42-1.49l2.85-9.06h2.88l2.76,9.06q.3,1,.63,2.25a17,17,0,0,1,.45,2h.12a19.85,19.85,0,0,1,.41-2.07c.21-.88.43-1.78.67-2.7l2.25-8.58h2.7l-4.47,16.08Z"/><path class="cls-3" d="M420,78.24a6,6,0,0,1-4.8-2.08q-1.8-2.09-1.8-6.23t1.82-6.25A6.71,6.71,0,0,1,423,62.25,6.46,6.46,0,0,1,425,63.93h.18c0-.26-.08-.64-.12-1.15s-.06-.92-.06-1.22V55.14h2.64v22.8h-2.13l-.39-2.16H425a6.23,6.23,0,0,1-1.92,1.74A5.94,5.94,0,0,1,420,78.24Zm.42-2.19A4.19,4.19,0,0,0,424,74.66a7.08,7.08,0,0,0,1-4.22V70a8.81,8.81,0,0,0-1-4.6c-.66-1.07-1.88-1.61-3.66-1.61a3.52,3.52,0,0,0-3.19,1.7A8.45,8.45,0,0,0,416.09,70a8,8,0,0,0,1.07,4.47A3.61,3.61,0,0,0,420.38,76.05Z"/><path class="cls-3" d="M442.61,81.42A1.19,1.19,0,0,0,444,82.77a4.19,4.19,0,0,0,.84-.07l.6-.11v1.68a8.52,8.52,0,0,1-.84.2,6,6,0,0,1-1,.07,3.19,3.19,0,0,1-2.34-.75,2.8,2.8,0,0,1-.75-2.07,3.54,3.54,0,0,1,.62-2,8.54,8.54,0,0,1,1.36-1.64,16.54,16.54,0,0,1-2.1.12,8.47,8.47,0,0,1-4.05-.93,6.5,6.5,0,0,1-2.71-2.76,9.55,9.55,0,0,1-1-4.53,10.61,10.61,0,0,1,.89-4.53A6.73,6.73,0,0,1,436,62.58a7.37,7.37,0,0,1,7.27-.12,5.91,5.91,0,0,1,2.3,2.54,8.63,8.63,0,0,1,.79,3.82v1.59h-11a6.08,6.08,0,0,0,1.4,4.16A4.85,4.85,0,0,0,440.45,76a11.73,11.73,0,0,0,2.72-.28,15.3,15.3,0,0,0,2.44-.83v2.31a14.69,14.69,0,0,0-1.87,1.68,4.63,4.63,0,0,0-.89,1.34A3.3,3.3,0,0,0,442.61,81.42Zm-2.94-17.7a3.81,3.81,0,0,0-3,1.22,5.71,5.71,0,0,0-1.31,3.37h8.19a5.62,5.62,0,0,0-1-3.31A3.4,3.4,0,0,0,439.67,63.72Z"/><path class="cls-3" d="M24.55,96.55a3.68,3.68,0,0,0-3.2,1.56,7.31,7.31,0,0,0-1.1,4.27,7.48,7.48,0,0,0,1,4.24,3.68,3.68,0,0,0,3.28,1.5,9.36,9.36,0,0,0,2.08-.24,21.63,21.63,0,0,0,2.28-.67v3a12.09,12.09,0,0,1-2.23.68,13.23,13.23,0,0,1-2.47.21,8,8,0,0,1-4.37-1.09A6.54,6.54,0,0,1,17.32,107a12.14,12.14,0,0,1-.81-4.62,10.75,10.75,0,0,1,.93-4.59,7.27,7.27,0,0,1,2.73-3.12,8.06,8.06,0,0,1,4.38-1.12,10.18,10.18,0,0,1,2.55.32,13.56,13.56,0,0,1,2.46.88l-1.17,3a16.8,16.8,0,0,0-1.94-.79A5.61,5.61,0,0,0,24.55,96.55Z"/><path class="cls-3" d="M46.82,93.77v11.08a6.57,6.57,0,0,1-.78,3.21,5.5,5.5,0,0,1-2.37,2.25,8.48,8.48,0,0,1-4,.83,7.1,7.1,0,0,1-5.18-1.74,6.15,6.15,0,0,1-1.78-4.59v-11h3.63v10.48a4.16,4.16,0,0,0,.86,3,3.51,3.51,0,0,0,2.57.85,3.25,3.25,0,0,0,2.58-.93,4.42,4.42,0,0,0,.8-2.93V93.77Z"/><path class="cls-3" d="M51.33,110.9V93.77H55V107.9h7v3Z"/><path class="cls-3" d="M71.32,110.9H67.7V96.79H63v-3H76v3H71.32Z"/><path class="cls-3" d="M92.87,93.77v11.08a6.57,6.57,0,0,1-.78,3.21,5.47,5.47,0,0,1-2.36,2.25,8.54,8.54,0,0,1-4,.83,7.1,7.1,0,0,1-5.18-1.74,6.12,6.12,0,0,1-1.78-4.59v-11h3.62v10.48a4.11,4.11,0,0,0,.87,3,3.5,3.5,0,0,0,2.57.85,3.25,3.25,0,0,0,2.58-.93,4.48,4.48,0,0,0,.8-2.93V93.77Z"/><path class="cls-3" d="M102.38,93.77A8.52,8.52,0,0,1,107.55,95a4.55,4.55,0,0,1,1.67,3.86,4.4,4.4,0,0,1-.45,2,4.51,4.51,0,0,1-1.17,1.49,7.07,7.07,0,0,1-1.57,1l5,7.46h-4L103,104.32H101v6.58H97.39V93.77Zm-.27,3H101v4.63h1.18a4.3,4.3,0,0,0,2.58-.6,2.1,2.1,0,0,0,.78-1.77,1.87,1.87,0,0,0-.84-1.74A5,5,0,0,0,102.11,96.74Z"/><path class="cls-3" d="M124,110.9l-1.25-4.08h-6.24l-1.25,4.08h-3.91l6.05-17.21h4.44l6.07,17.21Zm-2.12-7.13-1.24-4c-.08-.27-.19-.62-.32-1s-.25-.84-.38-1.27-.23-.81-.31-1.13c-.08.32-.19.71-.33,1.19s-.26.92-.38,1.34-.21.72-.28.9l-1.22,4Z"/><path class="cls-3" d="M130.41,110.9V93.77H134V107.9h7v3Z"/><path class="cls-3" d="M156.11,93.53a6.61,6.61,0,0,1,2.48.43,3.86,3.86,0,0,1,1.7,1.27,3.26,3.26,0,0,1,.62,2,4.06,4.06,0,0,1-1,2.78,9.51,9.51,0,0,1-2.45,2l3.34,3.24a13,13,0,0,0,.84-1.72,15.34,15.34,0,0,0,.6-1.81H166a18,18,0,0,1-1.06,2.88,13.45,13.45,0,0,1-1.77,2.88l3.52,3.43h-4.41l-1.35-1.32a9.21,9.21,0,0,1-2.31,1.14,8.66,8.66,0,0,1-2.75.42,7.05,7.05,0,0,1-4.57-1.34,4.33,4.33,0,0,1-1.65-3.53,4.67,4.67,0,0,1,.84-2.92,7.75,7.75,0,0,1,2.31-1.93,7.35,7.35,0,0,1-1.31-2,5.07,5.07,0,0,1-.37-1.94,3.59,3.59,0,0,1,.63-2.12A4.13,4.13,0,0,1,153.5,94,6.61,6.61,0,0,1,156.11,93.53Zm-1.24,10a4.52,4.52,0,0,0-1.07,1.07,2.16,2.16,0,0,0-.4,1.3,1.93,1.93,0,0,0,.77,1.62,3,3,0,0,0,1.92.59,5.17,5.17,0,0,0,1.44-.19,4.64,4.64,0,0,0,1.22-.53Zm1.22-7.28a2.32,2.32,0,0,0-1.14.31,1.19,1.19,0,0,0-.54,1.14,2.38,2.38,0,0,0,.3,1.15,6.76,6.76,0,0,0,.8,1.13,6.47,6.47,0,0,0,1.55-1.11,1.77,1.77,0,0,0,.54-1.27,1.14,1.14,0,0,0-.48-1A1.84,1.84,0,0,0,156.09,96.28Z"/><path class="cls-3" d="M185.56,110.9H175.7V93.77h9.86v3h-6.24v3.77h5.81v3h-5.81v4.41h6.24Z"/><path class="cls-3" d="M203.66,102.17c0,2.89-.83,5.07-2.47,6.54a10,10,0,0,1-6.89,2.19h-4.85V93.77h5.38a10.56,10.56,0,0,1,4.66,1,7,7,0,0,1,3.08,2.83A9.09,9.09,0,0,1,203.66,102.17Zm-3.77.09a6,6,0,0,0-1.25-4.17A4.69,4.69,0,0,0,195,96.74h-2V107.9h1.56Q199.9,107.9,199.89,102.26Z"/><path class="cls-3" d="M221.47,93.77v11.08a6.57,6.57,0,0,1-.78,3.21,5.5,5.5,0,0,1-2.37,2.25,8.48,8.48,0,0,1-4,.83,7.1,7.1,0,0,1-5.18-1.74,6.12,6.12,0,0,1-1.78-4.59v-11H211v10.48a4.11,4.11,0,0,0,.86,3,3.51,3.51,0,0,0,2.57.85,3.25,3.25,0,0,0,2.58-.93,4.48,4.48,0,0,0,.8-2.93V93.77Z"/><path class="cls-3" d="M233.25,96.55a3.66,3.66,0,0,0-3.19,1.56,7.24,7.24,0,0,0-1.11,4.27,7.48,7.48,0,0,0,1,4.24,3.69,3.69,0,0,0,3.28,1.5,9.44,9.44,0,0,0,2.09-.24,23.12,23.12,0,0,0,2.28-.67v3a12.33,12.33,0,0,1-2.23.68,13.34,13.34,0,0,1-2.48.21,7.92,7.92,0,0,1-4.36-1.09A6.43,6.43,0,0,1,226,107a12,12,0,0,1-.82-4.62,10.6,10.6,0,0,1,.94-4.59,7.25,7.25,0,0,1,2.72-3.12,8.06,8.06,0,0,1,4.38-1.12,10.26,10.26,0,0,1,2.56.32,14.12,14.12,0,0,1,2.46.88l-1.18,3a16.66,16.66,0,0,0-1.93-.79A5.71,5.71,0,0,0,233.25,96.55Z"/><path class="cls-3" d="M252.07,110.9l-1.25-4.08h-6.24l-1.25,4.08h-3.91l6.05-17.21h4.44L256,110.9ZM250,103.77l-1.24-4c-.08-.27-.19-.62-.32-1s-.25-.84-.38-1.27-.23-.81-.31-1.13c-.08.32-.19.71-.33,1.19s-.26.92-.38,1.34-.21.72-.28.9l-1.22,4Z"/><path class="cls-3" d="M263.37,110.9h-3.62V96.79h-4.66v-3H268v3h-4.66Z"/><path class="cls-3" d="M277.38,110.9h-7.8v-2.06l2.09-1V96.79l-2.09-1V93.77h7.8v2.06l-2.08,1v11.09l2.08,1Z"/><path class="cls-3" d="M296.18,102.31a11.43,11.43,0,0,1-.88,4.64,6.7,6.7,0,0,1-2.69,3.09,10.15,10.15,0,0,1-9.19,0,6.73,6.73,0,0,1-2.69-3.1,11.57,11.57,0,0,1-.87-4.66,11.42,11.42,0,0,1,.87-4.63,6.68,6.68,0,0,1,2.69-3.06A8.92,8.92,0,0,1,288,93.5a8.81,8.81,0,0,1,4.59,1.09,6.64,6.64,0,0,1,2.67,3.08A11.43,11.43,0,0,1,296.18,102.31Zm-12.51,0a7.58,7.58,0,0,0,1,4.24,4.35,4.35,0,0,0,6.64,0,9.4,9.4,0,0,0,0-8.48A3.64,3.64,0,0,0,288,96.53a3.7,3.7,0,0,0-3.33,1.54A7.58,7.58,0,0,0,283.67,102.31Z"/><path class="cls-3" d="M315.23,110.9h-4.61l-7.46-13h-.1c0,.82.07,1.63.11,2.45s.08,1.63.11,2.45v8.06H300V93.77h4.58l7.44,12.84h.08c0-.79-.07-1.57-.1-2.36s-.06-1.57-.07-2.37V93.77h3.26Z"/><path class="cls-3" d="M330.35,110.9l-1.25-4.08h-6.24l-1.24,4.08H317.7l6.05-17.21h4.44l6.07,17.21Zm-2.11-7.13-1.25-4c-.08-.27-.18-.62-.31-1s-.26-.84-.38-1.27-.24-.81-.32-1.13c-.08.32-.18.71-.32,1.19s-.26.92-.38,1.34-.22.72-.28.9l-1.22,4Z"/><path class="cls-3" d="M336.74,110.9V93.77h3.62V107.9h7v3Z"/><path class="cls-3" d="M364.43,96.55a3.66,3.66,0,0,0-3.19,1.56,7.24,7.24,0,0,0-1.11,4.27,7.4,7.4,0,0,0,1,4.24,3.67,3.67,0,0,0,3.27,1.5,9.44,9.44,0,0,0,2.09-.24,23.12,23.12,0,0,0,2.28-.67v3a12.33,12.33,0,0,1-2.23.68,13.34,13.34,0,0,1-2.48.21,7.92,7.92,0,0,1-4.36-1.09,6.43,6.43,0,0,1-2.52-3.07,12,12,0,0,1-.82-4.62,10.6,10.6,0,0,1,.94-4.59,7.25,7.25,0,0,1,2.72-3.12,8.06,8.06,0,0,1,4.38-1.12,10.26,10.26,0,0,1,2.56.32,14.12,14.12,0,0,1,2.46.88l-1.18,3a16.66,16.66,0,0,0-1.93-.79A5.71,5.71,0,0,0,364.43,96.55Z"/><path class="cls-3" d="M382.62,110.9h-9.86V93.77h9.86v3h-6.24v3.77h5.81v3h-5.81v4.41h6.24Z"/><path class="cls-3" d="M401.7,110.9h-4.6l-7.47-13h-.09c0,.82.06,1.63.1,2.45s.08,1.63.11,2.45v8.06h-3.24V93.77h4.59l7.44,12.84h.07c0-.79-.07-1.57-.1-2.36s-.05-1.57-.07-2.37V93.77h3.26Z"/><path class="cls-3" d="M412.94,110.9h-3.63V96.79h-4.65v-3h12.93v3h-4.65Z"/><path class="cls-3" d="M430.41,110.9h-9.87V93.77h9.87v3h-6.24v3.77H430v3h-5.8v4.41h6.24Z"/><path class="cls-3" d="M439.29,93.77A8.52,8.52,0,0,1,444.46,95a4.55,4.55,0,0,1,1.67,3.86,4.4,4.4,0,0,1-.45,2,4.51,4.51,0,0,1-1.17,1.49,7.07,7.07,0,0,1-1.57,1l5,7.46h-4l-4.08-6.58h-1.94v6.58H434.3V93.77Zm-.27,3h-1.1v4.63h1.18a4.3,4.3,0,0,0,2.58-.6,2.1,2.1,0,0,0,.78-1.77,1.87,1.87,0,0,0-.84-1.74A5,5,0,0,0,439,96.74Z"/><path class="cls-3" d="M89.66,128.17q0,4.34-2.48,6.54a10,10,0,0,1-6.88,2.19H75.45V119.77h5.38a10.56,10.56,0,0,1,4.66,1,7,7,0,0,1,3.07,2.83A9,9,0,0,1,89.66,128.17Zm-3.77.09a6,6,0,0,0-1.25-4.17A4.69,4.69,0,0,0,81,122.74h-2V133.9h1.56Q85.9,133.9,85.89,128.26Z"/><path class="cls-3" d="M103.53,136.9l-1.25-4.08H96l-1.25,4.08H90.88l6.05-17.21h4.44l6.07,17.21Zm-2.11-7.13-1.25-4c-.08-.27-.18-.62-.31-1l-.39-1.27c-.13-.44-.23-.81-.31-1.13-.08.32-.19.71-.32,1.19s-.27.92-.39,1.34-.21.72-.27.9l-1.23,4Z"/><path class="cls-3" d="M109.91,119.77h5.33a11.06,11.06,0,0,1,5.17,1,3.51,3.51,0,0,1,1.77,3.38,4.25,4.25,0,0,1-.69,2.47,2.86,2.86,0,0,1-1.95,1.23v.12a5.22,5.22,0,0,1,1.55.61,2.89,2.89,0,0,1,1.11,1.23,4.92,4.92,0,0,1,.41,2.16,4.36,4.36,0,0,1-1.69,3.65,7.29,7.29,0,0,1-4.6,1.32h-6.41Zm3.63,6.79h2.11a3.63,3.63,0,0,0,2.19-.49,1.79,1.79,0,0,0,.62-1.48,1.53,1.53,0,0,0-.72-1.42,4.69,4.69,0,0,0-2.28-.43h-1.92Zm0,2.88v4.46h2.37a3.24,3.24,0,0,0,2.28-.63,2.25,2.25,0,0,0,.65-1.7,2,2,0,0,0-.66-1.54,3.59,3.59,0,0,0-2.39-.59Z"/><path class="cls-3" d="M131.34,119.77a8.55,8.55,0,0,1,5.18,1.27,4.54,4.54,0,0,1,1.66,3.86,4.4,4.4,0,0,1-.44,2,4.67,4.67,0,0,1-1.18,1.49,6.85,6.85,0,0,1-1.57,1l5,7.46h-4l-4.08-6.58H130v6.58h-3.63V119.77Zm-.26,3H130v4.63h1.17a4.3,4.3,0,0,0,2.58-.6,2.1,2.1,0,0,0,.78-1.77,1.87,1.87,0,0,0-.84-1.74A5,5,0,0,0,131.08,122.74Z"/><path class="cls-3" d="M156.45,119.77v11.08a6.57,6.57,0,0,1-.78,3.21,5.5,5.5,0,0,1-2.37,2.25,8.48,8.48,0,0,1-4,.83,7.1,7.1,0,0,1-5.18-1.74,6.15,6.15,0,0,1-1.78-4.59v-11H146v10.48a4.16,4.16,0,0,0,.86,3,3.51,3.51,0,0,0,2.57.85,3.24,3.24,0,0,0,2.58-.93,4.42,4.42,0,0,0,.81-2.93V119.77Z"/><path class="cls-3" d="M177.38,136.9h-9.87V119.77h9.87v3h-6.24v3.77h5.8v3h-5.8v4.41h6.24Z"/><path class="cls-3" d="M188.51,136.9l-4.13-13.44h-.09c0,.32,0,.8.07,1.44s.06,1.33.1,2.07,0,1.39,0,2v8h-3.25V119.77h5l4,13.1h.08l4.29-13.1h5V136.9h-3.39v-8.11c0-.54,0-1.17,0-1.87s.05-1.37.07-2,0-1.1.06-1.42h-.1l-4.41,13.41Z"/><path class="cls-3" d="M214.07,136.9h-9.86V119.77h9.86v3h-6.24v3.77h5.81v3h-5.81v4.41h6.24Z"/><path class="cls-3" d="M224.56,136.9h-3.62V122.79h-4.66v-3h12.94v3h-4.66Z"/><path class="cls-3" d="M237.28,131.93V129h6.29v2.92Z"/><path class="cls-3" d="M259.91,136.9h-3.62V122.79h-4.66v-3h12.94v3h-4.66Z"/><path class="cls-3" d="M277.38,136.9h-9.86V119.77h9.86v3h-6.24v3.77H277v3h-5.81v4.41h6.24Z"/><path class="cls-3" d="M281.27,136.9V119.77h3.63V133.9h7v3Z"/><path class="cls-3" d="M295.14,136.9V119.77h3.63V133.9h7v3Z"/><path class="cls-3" d="M322.17,136.9h-3.63V122.79h-4.65v-3h12.93v3h-4.65Z"/><path class="cls-3" d="M343.82,136.9h-3.63v-7.39H333.4v7.39h-3.62V119.77h3.62v6.72h6.79v-6.72h3.63Z"/><path class="cls-3" d="M358.31,136.9h-9.86V119.77h9.86v3h-6.24v3.77h5.81v3h-5.81v4.41h6.24Z"/><path class="cls-3" d="M375.35,136.9h-3.62V122.79h-4.66v-3H380v3h-4.66Z"/><path class="cls-3" d="M388,119.77a8.5,8.5,0,0,1,5.17,1.27,5.2,5.2,0,0,1,1.23,5.91,4.67,4.67,0,0,1-1.18,1.49,7.07,7.07,0,0,1-1.57,1l5,7.46h-4l-4.08-6.58h-1.95v6.58H383V119.77Zm-.26,3h-1.11v4.63h1.18a4.3,4.3,0,0,0,2.58-.6,2.1,2.1,0,0,0,.78-1.77,1.87,1.87,0,0,0-.84-1.74A5,5,0,0,0,387.69,122.74Z"/><path class="cls-3" d="M413.05,119.77v11.08a6.57,6.57,0,0,1-.77,3.21,5.5,5.5,0,0,1-2.37,2.25,8.48,8.48,0,0,1-4,.83,7.1,7.1,0,0,1-5.18-1.74,6.12,6.12,0,0,1-1.78-4.59v-11h3.63v10.48a4.11,4.11,0,0,0,.86,3,3.5,3.5,0,0,0,2.57.85,3.25,3.25,0,0,0,2.58-.93,4.48,4.48,0,0,0,.8-2.93V119.77Z"/><path class="cls-3" d="M424.17,136.9h-3.63V122.79h-4.65v-3h12.93v3h-4.65Z"/><path class="cls-3" d="M445.81,136.9h-3.62v-7.39H435.4v7.39h-3.63V119.77h3.63v6.72h6.79v-6.72h3.62Z"/><path class="cls-4" d="M28.69,138.42H38.76V123.13c.1-7-10.17-7-10.06,0h0a5.19,5.19,0,0,0-5-5.37c-8.78,1.47-3.79,14.38-5,20.66H28.69"/><rect class="cls-5" x="31.62" y="123.17" width="5.01" height="5.35"/><rect class="cls-6" x="31.62" y="130.6" width="5.01" height="5.35"/><rect class="cls-5" x="21.32" y="123.17" width="5.01" height="5.35"/><rect class="cls-6" x="21.32" y="130.6" width="5.01" height="5.35"/><rect class="cls-3" x="27.72" y="125.05" width="2.13" height="0.5"/><rect class="cls-3" x="27.72" y="126.14" width="2.13" height="0.5"/><rect class="cls-3" x="27.91" y="132.48" width="2.13" height="0.5"/><rect class="cls-3" x="27.91" y="133.57" width="2.13" height="0.5"/></g></g></svg>