<svg xmlns="http://www.w3.org/2000/svg" viewBox="0 0 609.91 152.87"><defs><style>.cls-1,.cls-18,.cls-2{fill:#fff;}.cls-18,.cls-19,.cls-2{stroke:#231f20;}.cls-17,.cls-18,.cls-19,.cls-2{stroke-miterlimit:10;}.cls-2{stroke-width:3px;}.cls-10,.cls-19,.cls-3,.cls-4{fill:#231f20;}.cls-4{font-size:30px;font-family:NotoSans-Regular, Noto Sans;}.cls-5{letter-spacing:-0.02em;}.cls-6{letter-spacing:-0.03em;}.cls-7{letter-spacing:0.03em;}.cls-8{letter-spacing:0.01em;}.cls-9{letter-spacing:0.03em;}.cls-10{font-size:24px;font-family:NotoSans-Bold, Noto Sans;font-weight:700;}.cls-10,.cls-16{letter-spacing:0.01em;}.cls-11{letter-spacing:-0.01em;}.cls-12{letter-spacing:0.01em;}.cls-13{letter-spacing:-0.06em;}.cls-14{letter-spacing:0.01em;}.cls-15{letter-spacing:-0.01em;}.cls-17{fill:none;stroke:#010101;}</style></defs><g id="Layer_2" data-name="Layer 2"><g id="Layer_1-2" data-name="Layer 1"><rect class="cls-1" x="1.17" width="608.74" height="152.87"/><rect class="cls-2" x="468.89" y="14.56" width="125.37" height="125.37"/><path class="cls-3" d="M484.44,66.7v-33h5v33Z"/><path class="cls-3" d="M514.82,66.7V45.25q0-3.9-1.72-5.41a7,7,0,0,0-4.77-1.5H495V33.71h13.67q5.67,0,8.41,2.51c1.84,1.67,2.75,4.35,2.75,8V66.7Z"/><path class="cls-3" d="M525.93,66.7V62.08h17.73V45.25q0-3.9-1.73-5.41a7,7,0,0,0-4.77-1.5H525.93V33.71h11.56c3.78,0,6.58.84,8.42,2.51s2.74,4.35,2.74,8V62.08H553V66.7Z"/><path class="cls-3" d="M572,66.7V38.34H554.93V33.71H582v4.63H577V66.7Z"/><path class="cls-3" d="M480.25,122.43V117.8h2.55q3.06,0,3.06-5.13V94.06h-5.39V89.44h19.27c3.78,0,6.59.83,8.42,2.51s2.75,4.34,2.75,8v22.46h-5V101q0-3.9-1.72-5.4a7,7,0,0,0-4.78-1.51h-8.55V112.4q0,5-1.95,7.52c-1.3,1.67-3.42,2.51-6.39,2.51Z"/><path class="cls-3" d="M534.8,88.77q5.78,0,8.86,3.15a11.19,11.19,0,0,1,3.08,8.16v22.35H532.3V117.8h9.44V100.86A8.44,8.44,0,0,0,540,95.29q-1.75-2.12-5.53-2.12a7.74,7.74,0,0,0-6.61,3,16.26,16.26,0,0,0-2.78,8l-1.94,18.23h-5l2.5-22.85-2.22-10.14h5l.94,4.68h.17a15,15,0,0,1,2.28-2.62,10.22,10.22,0,0,1,3.25-2A13.07,13.07,0,0,1,534.8,88.77Z"/><path class="cls-3" d="M554.29,122.43v-8.81a18.72,18.72,0,0,1,1.78-8.69A11.61,11.61,0,0,1,561,99.86L554,89.44h5.89l12.39,18.44q4.05-2.44,4-10V89.44h5v8.13a18.48,18.48,0,0,1-1.78,8.67,12,12,0,0,1-4.94,5.1l7.5,11.09h-5.89l-12.83-19.12q-4.07,2.5-4.06,10v9.14Z"/><text class="cls-4" transform="translate(15.12 40.94)"><tspan class="cls-5">Centrum Edukacyjno Kultu</tspan><tspan class="cls-6" x="363.9" y="0">r</tspan><tspan class="cls-5" x="375.24" y="0">alne</tspan><tspan x="433.47" y="0"> </tspan><tspan class="cls-7"><tspan x="-0.15" y="37">Dabru Emet - M</tspan><tspan class="cls-8" x="231.63" y="37">ó</tspan><tspan class="cls-9" x="249.96" y="37">wcie P</tspan><tspan class="cls-8" x="343.23" y="37">r</tspan><tspan class="cls-9" x="355.8" y="37">awdę</tspan></tspan></text><text class="cls-10" transform="translate(16.29 110.9)">CU<tspan class="cls-11" x="34.06" y="0">L</tspan><tspan class="cls-12" x="47.45" y="0">TURAL &amp; EDUC</tspan><tspan class="cls-13" x="224.3" y="0">A</tspan><tspan class="cls-14" x="239.5" y="0">TIONAL CENTER </tspan><tspan class="cls-15"><tspan x="58.17" y="26">D</tspan><tspan class="cls-16" x="75.77" y="26">ABRU EMET - TELL THE TRUTH</tspan></tspan></text><path class="cls-17" d="M29.87,138.42H39.93V123.13a5,5,0,1,0-10.06,0h0a5.19,5.19,0,0,0-5-5.37,5.25,5.25,0,0,0-5,5.43v15.23H29.87"/><rect class="cls-18" x="32.79" y="123.17" width="5.01" height="5.35"/><rect class="cls-19" x="32.79" y="130.6" width="5.01" height="5.35"/><rect class="cls-18" x="22.49" y="123.17" width="5.01" height="5.35"/><rect class="cls-19" x="22.49" y="130.6" width="5.01" height="5.35"/><rect class="cls-3" x="28.89" y="125.05" width="2.13" height="0.5"/><rect class="cls-3" x="28.89" y="126.14" width="2.13" height="0.5"/><rect class="cls-3" x="29.08" y="132.48" width="2.13" height="0.5"/><rect class="cls-3" x="29.08" y="133.57" width="2.13" height="0.5"/></g></g></svg>